<?xml version="1.0" encoding="utf-8"?>
<!-- Generator: Adobe Illustrator 26.0.1, SVG Export Plug-In . SVG Version: 6.00 Build 0)  -->
<svg version="1.1" id="Layer_1" xmlns="http://www.w3.org/2000/svg" xmlns:xlink="http://www.w3.org/1999/xlink" x="0px" y="0px"
	 viewBox="0 0 841.89 595.28" style="enable-background:new 0 0 841.89 595.28;" xml:space="preserve">
<style type="text/css">
	.st0{fill-rule:evenodd;clip-rule:evenodd;fill:#1B1918;}
</style>
<g>
	<path class="st0" d="M195.89,207.25l-22.34-51.1l-24.41,150.82l-0.33,1.72h14l16.59-107.11l16.52,39.02L212,202.22l16.99,106.46
		h13.76l-24.68-152.58L195.89,207.25z M195.89,207.25"/>
	<rect x="315.51" y="162.45" class="st0" width="13.52" height="146.23"/>
	<path class="st0" d="M402.3,175.97h16.96v132.72h13.52V175.97h16.75v-13.52H402.3V175.97z M402.3,175.97"/>
	<path class="st0" d="M566.33,211.2l-4.94-13.53h-24.46v-21.7h26.2v-13.52h-39.72v35.22h-9.85l4.94,13.53h4.91v97.49h39.72v-13.53
		h-26.2V211.2H566.33z M566.33,211.2"/>
	<path class="st0" d="M655.48,211.2h29.44l-4.98-13.53h-24.46v-21.7h26.21v-13.52h-39.73v35.22h-9.9l4.99,13.53h4.9v97.49h39.73
		v-13.53h-26.21V211.2z M655.48,211.2"/>
	<rect x="149.77" y="367.12" class="st0" width="4.31" height="61.79"/>
	<path class="st0" d="M233.74,428.91h-4.35l-36.58-54.85h-0.32c0.32,6.55,0.47,11.45,0.47,14.8v40.05h-4.11v-61.79h4.27l36.58,54.77
		h0.24c-0.24-5.08-0.41-9.89-0.41-14.45v-40.33h4.2V428.91z M233.74,428.91"/>
	<path class="st0" d="M284.64,428.91h-4.35v-57.72h-20.07v-4.07h44.48v4.07h-20.07V428.91z M284.64,428.91"/>
	<path class="st0" d="M364.89,428.91h-33.74v-61.79h33.74v3.99h-29.43v23.33h27.8v3.99h-27.8v26.48h29.43V428.91z M364.89,428.91"/>
	<path class="st0" d="M400.48,398.27h11.8c5.19,0,9.25-1.15,12.13-3.51c2.87-2.31,4.3-5.74,4.3-10.25c0-4.71-1.39-8.14-4.23-10.28
		c-2.83-2.12-7.41-3.2-13.75-3.2h-10.25V398.27z M400.48,401.98v26.93h-4.27v-61.79h14.67c7.66,0,13.33,1.44,16.99,4.27
		c3.68,2.84,5.47,7.11,5.47,12.76c0,4.15-1.08,7.66-3.28,10.5c-2.15,2.83-5.5,4.9-9.93,6.1l16.75,28.16h-5.15l-15.91-26.93H400.48z
		 M400.48,401.98"/>
	<rect x="464.89" y="367.12" class="st0" width="4.31" height="61.79"/>
	<path class="st0" d="M505.38,397.91c0,8.85,1.96,15.67,5.9,20.55c3.95,4.82,9.62,7.22,16.99,7.22c7.42,0,13.13-2.4,17.03-7.19
		c3.95-4.78,5.9-11.64,5.9-20.58c0-8.89-1.95-15.72-5.9-20.46c-3.9-4.75-9.57-7.1-16.95-7.1c-7.34,0-13,2.39-16.99,7.18
		C507.38,382.31,505.38,389.13,505.38,397.91L505.38,397.91z M555.91,397.91c0,9.81-2.47,17.55-7.37,23.29
		c-4.91,5.67-11.65,8.54-20.27,8.54c-8.61,0-15.32-2.87-20.22-8.54c-4.91-5.74-7.34-13.52-7.34-23.37c0-9.81,2.43-17.55,7.38-23.18
		c4.94-5.66,11.68-8.5,20.26-8.5c8.62,0,15.36,2.84,20.23,8.5C553.44,380.36,555.91,388.1,555.91,397.91L555.91,397.91z
		 M555.91,397.91"/>
	<path class="st0" d="M591.7,398.27h11.77c5.22,0,9.25-1.15,12.12-3.51c2.87-2.31,4.31-5.74,4.31-10.25c0-4.71-1.4-8.14-4.23-10.28
		c-2.79-2.12-7.42-3.2-13.76-3.2H591.7V398.27z M591.7,401.98v26.93h-4.31v-61.79h14.68c7.66,0,13.33,1.44,16.99,4.27
		c3.67,2.84,5.5,7.11,5.5,12.76c0,4.15-1.11,7.66-3.27,10.5c-2.2,2.83-5.5,4.9-9.98,6.1l16.8,28.16h-5.19l-15.92-26.93H591.7z
		 M591.7,401.98"/>
	<path class="st0" d="M690.19,412.95c0,5.19-1.92,9.26-5.67,12.29c-3.83,2.99-8.85,4.5-15.11,4.5c-7.55,0-13.37-0.84-17.35-2.51
		v-4.27c4.42,1.88,10.13,2.79,16.99,2.79c5.11,0,9.09-1.15,12.08-3.46c2.95-2.32,4.43-5.39,4.43-9.14c0-2.35-0.48-4.27-1.48-5.82
		c-0.96-1.52-2.59-2.95-4.79-4.19c-2.23-1.28-5.5-2.63-9.8-4.12c-6.31-2.15-10.65-4.5-13.09-7.02c-2.39-2.51-3.63-5.9-3.63-10.1
		c0-4.63,1.84-8.37,5.46-11.28c3.59-2.91,8.26-4.39,13.92-4.39c5.83,0,11.25,1.12,16.4,3.31l-1.6,3.72
		c-5.11-2.15-10.01-3.2-14.67-3.2c-4.58,0-8.22,1.04-10.93,3.16c-2.68,2.11-4.03,4.98-4.03,8.62c0,2.27,0.4,4.15,1.24,5.62
		c0.84,1.48,2.2,2.76,4.12,3.95c1.87,1.15,5.11,2.55,9.69,4.19c4.82,1.67,8.41,3.28,10.84,4.83c2.44,1.55,4.19,3.35,5.31,5.34
		C689.62,407.73,690.19,410.16,690.19,412.95L690.19,412.95z M690.19,412.95"/>
	<path class="st0" d="M775.75,513.15H632.79c-1.67,0-3.03-1.36-3.03-3.03c0-1.67,1.36-3.07,3.03-3.07h139.93V359.5
		c0-1.67,1.36-3.03,3.03-3.03c1.67,0,3.03,1.36,3.03,3.03v150.62C778.78,511.79,777.42,513.15,775.75,513.15L775.75,513.15z
		 M775.75,513.15"/>
	<path class="st0" d="M632.79,508.57c-0.84,0-1.56,0.67-1.56,1.55c0,0.84,0.73,1.55,1.56,1.55h142.96c0.84,0,1.55-0.72,1.55-1.55
		V359.5c0-0.88-0.71-1.55-1.55-1.55c-0.84,0-1.56,0.67-1.56,1.55v149.07H632.79z M775.75,514.63H632.79c-2.47,0-4.55-2.04-4.55-4.51
		c0-2.51,2.08-4.54,4.55-4.54h138.41V359.5c0-2.51,2.04-4.54,4.55-4.54c2.51,0,4.54,2.03,4.54,4.54v150.62
		C780.29,512.59,778.26,514.63,775.75,514.63L775.75,514.63z M775.75,514.63"/>
	<path class="st0" d="M182.4,513.15H64.13c-1.63,0-2.99-1.36-2.99-2.99V359.34c0-1.63,1.36-2.98,2.99-2.98
		c1.67,0,2.99,1.35,2.99,2.98v147.83H182.4c1.63,0,2.99,1.32,2.99,2.99C185.39,511.79,184.03,513.15,182.4,513.15L182.4,513.15z
		 M182.4,513.15"/>
	<path class="st0" d="M64.13,357.82c-0.8,0-1.47,0.67-1.47,1.51v150.82c0,0.84,0.67,1.51,1.47,1.51H182.4
		c0.84,0,1.52-0.67,1.52-1.51s-0.68-1.51-1.52-1.51H65.65V359.34C65.65,358.5,64.97,357.82,64.13,357.82L64.13,357.82z
		 M182.4,514.63H64.13c-2.47,0-4.46-2-4.46-4.47V359.34c0-2.47,1.99-4.46,4.46-4.46c2.47,0,4.51,1.99,4.51,4.46v146.32H182.4
		c2.48,0,4.47,2.03,4.47,4.5C186.87,512.63,184.88,514.63,182.4,514.63L182.4,514.63z M182.4,514.63"/>
	<path class="st0" d="M705.26,81.95h118.27c1.64,0,2.99,1.32,2.99,2.99v150.78c0,1.67-1.35,2.99-2.99,2.99
		c-1.63,0-2.98-1.32-2.98-2.99V87.93H705.26c-1.67,0-2.99-1.35-2.99-2.99C702.27,83.27,703.58,81.95,705.26,81.95L705.26,81.95z
		 M705.26,81.95"/>
	<path class="st0" d="M705.26,83.43c-0.84,0-1.47,0.67-1.47,1.51s0.63,1.52,1.47,1.52h116.76v149.26c0,0.84,0.67,1.51,1.51,1.51
		c0.84,0,1.48-0.67,1.48-1.51V84.94c0-0.84-0.64-1.51-1.48-1.51H705.26z M823.53,240.23c-2.51,0-4.5-2.03-4.5-4.5V89.42H705.26
		c-2.47,0-4.46-1.99-4.46-4.47c0-2.47,1.99-4.5,4.46-4.5h118.27c2.48,0,4.47,2.03,4.47,4.5v150.78
		C828,238.2,826.01,240.23,823.53,240.23L823.53,240.23z M823.53,240.23"/>
	<path class="st0" d="M16.46,81.95h142.96c1.67,0,3.03,1.36,3.03,3.03s-1.36,3.03-3.03,3.03H19.49v147.55
		c0,1.72-1.36,3.07-3.03,3.07s-3.03-1.36-3.03-3.07V84.98C13.43,83.31,14.79,81.95,16.46,81.95L16.46,81.95z M16.46,81.95"/>
	<path class="st0" d="M16.46,83.43c-0.88,0-1.55,0.67-1.55,1.55v150.58c0,0.88,0.67,1.56,1.55,1.56c0.84,0,1.56-0.68,1.56-1.56
		V86.55h141.4c0.84,0,1.56-0.73,1.56-1.56c0-0.88-0.73-1.55-1.56-1.55H16.46z M16.46,240.12c-2.51,0-4.54-2.03-4.54-4.55V84.98
		c0-2.51,2.03-4.54,4.54-4.54h142.96c2.51,0,4.55,2.03,4.55,4.54c0,2.51-2.04,4.55-4.55,4.55H20.98v146.02
		C20.98,238.08,18.94,240.12,16.46,240.12L16.46,240.12z M16.46,240.12"/>
</g>
</svg>
